<svg width="30" height="26" viewBox="0 0 30 26" fill="none" xmlns="http://www.w3.org/2000/svg">
<path d="M-4.53653e-06 25.9459C-4.23851e-06 24.2415 -3.94601e-06 22.5686 -3.65903e-06 20.9272C-3.36101e-06 19.2227 0.0310528 17.6129 0.0931649 16.0978C0.155278 10.9213 0.90062 6.97573 2.32919 4.2612C3.81988 1.48353 6.49068 0.0631291 10.3416 1.80819e-06L11.8323 4.2612C9.65839 4.38745 8.19876 5.27126 7.45342 6.91261C6.77018 8.55396 6.42857 10.8582 6.42857 13.8252L12.205 13.8252L12.205 25.9459L-4.53653e-06 25.9459ZM17.795 25.9459C17.795 24.2415 17.795 22.5686 17.795 20.9272C17.795 19.2227 17.8261 17.6129 17.8882 16.0979C17.9503 10.9213 18.6957 6.97574 20.1242 4.2612C21.6149 1.48353 24.2857 0.0631322 28.1366 4.91957e-06L29.6273 4.2612C27.4534 4.38746 25.9938 5.27126 25.2484 6.91261C24.5652 8.55396 24.2236 10.8582 24.2236 13.8252L30 13.8252L30 25.9459L17.795 25.9459Z" fill="white"/>
</svg>
