<?xml version="1.0" encoding="utf-8"?>
<!-- Generator: Adobe Illustrator 26.3.1, SVG Export Plug-In . SVG Version: 6.00 Build 0)  -->
<svg version="1.1" id="Layer_1" xmlns="http://www.w3.org/2000/svg" xmlns:xlink="http://www.w3.org/1999/xlink" x="0px" y="0px"
	 viewBox="0 0 289.9 280.7" style="enable-background:new 0 0 289.9 280.7;" xml:space="preserve">
<style type="text/css">
	.st0{fill:#84888B;}
	.st1{clip-path:url(#SVGID_00000145047361938816713250000010575407309249551514_);fill:#030000;fill-opacity:0.1;}
</style>
<rect class="st0" width="290" height="280.7"/>
<g>
	<defs>
		<rect id="SVGID_1_" y="-0.3" width="290" height="281"/>
	</defs>
	<clipPath id="SVGID_00000059989442488938864590000006708190884889641126_">
		<use xlink:href="#SVGID_1_"  style="overflow:visible;"/>
	</clipPath>
	<path style="clip-path:url(#SVGID_00000059989442488938864590000006708190884889641126_);fill:#030000;fill-opacity:0.1;" d="
		M190.1,280.7c0.5-0.2,1-0.4,1.6-0.6c22.6-7.2,43.1-19.3,60-35.4s29.8-35.8,37.5-57.6c0.1-0.5,0.4-0.9,0.7-1.2c0,0.4,0,0.8,0,1.2
		c0,17,0,34,0,51c0,0.9-0.3,1.8-0.9,2.5c-11.2,14.9-24.8,28-40.2,38.8c-0.6,0.4-1.1,0.8-1.7,1.3L190.1,280.7L190.1,280.7z"/>
	<path style="clip-path:url(#SVGID_00000059989442488938864590000006708190884889641126_);fill:#030000;fill-opacity:0.1;" d="
		M0,191.3c0.7,0.2,0.8,0.9,1,1.4c3.4,8.4,7.5,16.4,12.4,24.1C32.4,246.7,61.6,269,96,280c0.7,0.2,1.3,0.5,1.9,0.8H40.7
		c-0.3-0.3-0.6-0.5-0.9-0.8C25.1,269.7,12,257.4,1,243.4c-0.3-0.4-0.6-0.7-1-1V191.3z"/>
	<path style="clip-path:url(#SVGID_00000059989442488938864590000006708190884889641126_);fill:#030000;fill-opacity:0.1;" d="M0,35
		c0.4-0.4,0.8-0.8,1.2-1.2c9.8-12.4,21.2-23.5,33.9-33C35.9,0.3,36.8,0,37.7,0C54,0,70.3,0,86.6,0h1.3v0.2c-0.4,0.2-0.7,0.4-1.1,0.5
		c-19.4,7.6-37,19-51.8,33.4C20.3,48.5,8.7,65.6,1,84.5c-0.2,0.6-0.2,1.3-1,1.5V35z"/>
	<path style="clip-path:url(#SVGID_00000059989442488938864590000006708190884889641126_);fill:#030000;fill-opacity:0.1;" d="
		M144.9,237.9c-0.1-0.4-0.3-0.6-0.4-0.8c-4.2-13.9-10.8-27-19.6-38.8c-14-19.2-32.1-35.2-53.3-46.7c-8.3-4.6-17.1-8.2-26.3-10.8
		l-0.6-0.2c0,0-0.1,0-0.3-0.2c0.2-0.1,0.5-0.2,0.7-0.3c12.5-3.5,24.4-8.9,35.2-15.9c22.1-13.9,40.3-32.8,53.3-55.1
		c4.7-8,8.3-16.5,10.9-25.3c0-0.2,0.1-0.4,0.2-0.6c0.1-0.1,0.1-0.2,0.2-0.3l0.7,2.4c3.8,12.1,9.5,23.6,17,34
		c14,20.2,32.5,37.1,54.3,49.3c8.7,4.9,17.9,8.7,27.6,11.4l0.9,0.3c-0.2,0.1-0.5,0.3-0.8,0.4c-15.5,4.4-30.1,11.6-42.9,21.1
		c-17.8,12.7-32.8,28.8-44.1,47.3c-5.4,8.7-9.6,18.1-12.4,27.9C145.2,237.3,145.1,237.6,144.9,237.9z"/>
	<path style="clip-path:url(#SVGID_00000059989442488938864590000006708190884889641126_);fill:#030000;fill-opacity:0.1;" d="
		M289.7,91.5c-16.1-43.2-46-73.8-89.9-91.5c0.4,0,34.2,0,50.8,0c0.7,0,1.3,0.2,1.9,0.6c14,10.4,26.3,22.6,36.7,36.4
		c0.5,0.6,0.7,1.4,0.7,2.2v51.4C289.8,90.8,289.7,91.1,289.7,91.5z"/>
</g>
</svg>
