<?xml version="1.0" encoding="utf-8"?>
<!-- Generator: Adobe Illustrator 26.3.1, SVG Export Plug-In . SVG Version: 6.00 Build 0)  -->
<svg version="1.1" id="Layer_1" xmlns="http://www.w3.org/2000/svg" xmlns:xlink="http://www.w3.org/1999/xlink" x="0px" y="0px"
	 viewBox="0 0 287 281" style="enable-background:new 0 0 287 281;" xml:space="preserve">
<style type="text/css">
	.st0{fill:#030000;}
	.st1{fill:#FFFFFF;fill-opacity:0.1;}
</style>
<rect x="-0.9" y="-1" class="st0" width="287.9" height="282.9"/>
<path class="st1" d="M118.5,0.1h0.3c0.2,0.3,0.4,0.6,0.6,0.8L142.6,24c0.3,0.3,0.6,0.5,0.9,0.8c0.4-0.3,0.7-0.6,0.9-0.9l23.1-23.1
	c0.2-0.3,0.4-0.5,0.6-0.8h0.3c0,0.2,0.1,0.3,0.2,0.5c5.8,9,11.9,17.7,18.4,26.2c0.2,0.3,0.4,0.5,0.8,0.6c0.3,0.1,0.6,0.2,1,0.2h66.1
	h1.7v2.1c0,21.7,0,43.5,0,65.2c0,0.5,0,0.9,0.3,1.3c0.2,0.4,0.5,0.8,0.9,1c6.6,4.7,13.2,9.4,19.7,14.1c2.1,1.5,4.3,2.9,6.4,4.3v0.3
	c-0.2,0.1-0.4,0.3-0.6,0.5L260,139.6l-0.9,1c0.4,0.4,0.8,0.6,1.3,1c9.6,7.8,22.3,22.3,22.3,22.3c0.4,0.4,0.8,0.8,1.2,1.3v0.3
	c-0.4,0.2-0.8,0.4-1.2,0.6c-8.5,5.5-16.8,11.3-24.8,17.5c-0.4,0.3-0.8,0.7-1,1.2s-0.3,1-0.3,1.5c0,21.7,0,43.4,0,65.1v2.1h-67.4
	c-0.5,0-1,0.1-1.4,0.3s-0.8,0.5-1.1,0.9c-6.1,8.1-12,16.3-17.5,24.8c-0.3,0.5-0.6,0.9-0.9,1.4l-24.9-25l-24.8,24.8
	c-0.3-0.5-0.6-0.8-0.8-1.3c-5.5-8.5-11.3-16.7-17.4-24.7c-0.3-0.4-0.7-0.8-1.2-1s-1-0.3-1.6-0.3c-21.7,0-43.5,0-65.2,0h-1.9v-1.9
	c0-21.7,0-43.5,0-65.2c0-0.5-0.1-1.1-0.3-1.5c-0.2-0.5-0.6-0.9-1-1.2c-8-6.1-16.3-11.9-24.7-17.4c-0.4-0.3-0.8-0.5-1.4-1
	c0,0,15.2-15.2,25-24.9c-1.7-1.2-24.1-24-24.6-24.9l1-0.7c8.5-5.5,16.7-11.3,24.7-17.4c0.5-0.3,0.9-0.8,1.1-1.3s0.4-1.1,0.3-1.7
	c0-21.7,0-43.4,0-65.1v-1.9h67.1c0.5,0,1,0,1.4-0.3c0.4-0.2,0.8-0.5,1-1c3.9-5.5,8-10.9,11.8-16.4C114.3,6.7,116.3,3.4,118.5,0.1z
	 M205.8,140.6c0-12.3-3.6-24.4-10.4-34.7c-6.8-10.3-16.6-18.3-27.9-23c-11.4-4.7-23.9-6-36-3.6c-12.1,2.4-23.2,8.3-32,17
	c-8.8,8.6-14.8,19.7-17.2,31.8s-1.2,24.6,3.5,36.1c4.7,11.4,12.7,21.2,22.9,28.1c10.2,6.9,22.3,10.6,34.6,10.6
	c8.2,0,16.3-1.6,23.9-4.7c7.6-3.1,14.5-7.7,20.3-13.5s10.4-12.7,13.6-20.2C204.2,156.9,205.8,148.8,205.8,140.6z"/>
</svg>
