<?xml version="1.0" encoding="utf-8"?>
<!-- Generator: Adobe Illustrator 26.3.1, SVG Export Plug-In . SVG Version: 6.00 Build 0)  -->
<svg version="1.1" id="Layer_1" xmlns="http://www.w3.org/2000/svg" xmlns:xlink="http://www.w3.org/1999/xlink" x="0px" y="0px"
	 viewBox="0 0 285.7 280.8" style="enable-background:new 0 0 285.7 280.8;" xml:space="preserve">
<style type="text/css">
	.st0{fill:#702E3D;}
	.st1{fill:#C12D66;fill-opacity:0.2;}
</style>
<rect class="st0" width="285.7" height="280.8"/>
<path class="st1" d="M126.7,280.8H0V156.7c0.4-0.1,0.7-0.3,1.1-0.5c7.6-5.1,15.1-10.1,22.6-15.2c0.3-0.2,0.5-0.4,0.9-0.7
	c-0.3-0.3-0.6-0.5-0.9-0.6L1,124.5c-0.3-0.2-0.6-0.3-1-0.5V0h1.7H125c0.4,0,0.9,0,1.3,0.3s0.7,0.5,1,0.9c4.9,7.2,9.8,14.3,14.7,21.4
	l1,1.5l0.9-1.3c4.9-7.2,9.9-14.3,14.8-21.5c0.2-0.4,0.6-0.7,1-0.9S160.6,0,161,0c9.7,0,19.2,0,28.8,0h95.8v1.5
	c0,40.4,0,80.9,0,121.3c0,0.4,0,0.8-0.2,1.2c-0.2,0.4-0.5,0.7-0.9,0.9c-7.3,4.8-14.5,9.7-21.8,14.5l-1.4,1l1.4,0.9
	c7.2,4.8,14.4,9.6,21.7,14.4c0.4,0.2,0.8,0.6,1,1s0.3,0.9,0.3,1.4c0,23,0,45.9,0,68.9v53.7H159.5L143,256.9l-0.7,0.9
	c-5.1,7.3-10.1,14.7-15.2,22.1C127,280.1,126.8,280.4,126.7,280.8z M170.1,140.4l1.3-0.9c2.5-1.7,4.9-3.3,7.3-5
	c13.5-9.2,26-19.6,37.5-31.1c6.8-6.8,12.9-14.3,18-22.4c3.4-5.2,6-10.9,7.7-16.9c1.2-3.8,1.4-7.9,0.7-11.8c-0.4-2.3-1.4-4.5-3-6.2
	s-3.7-3-6-3.6c-1.5-0.4-3-0.6-4.5-0.7c-4.1-0.1-8.2,0.6-12.1,2.1c-6.8,2.5-13.3,5.9-19.2,10.1c-9.5,6.8-18.3,14.5-26.1,23.1
	c-10.2,11-19.5,22.8-27.8,35.2c-0.3,0.4-0.6,0.8-0.9,1.3l-0.9-1.2c-2.6-3.8-5.3-7.6-8-11.2c-9.1-12.6-19.5-24.3-30.9-35
	c-6.8-6.4-14.4-12.1-22.5-16.9c-4.5-2.7-9.4-4.8-14.5-6.3c-4-1.3-8.2-1.6-12.4-0.9c-2.4,0.3-4.7,1.3-6.6,2.9
	c-1.8,1.6-3.1,3.7-3.7,6.1c-0.4,1.4-0.6,2.8-0.7,4.2c-0.1,4.1,0.6,8.2,2.1,12.1c2.5,6.7,5.9,13,10.2,18.8
	c7.1,9.6,15.2,18.5,24.2,26.4c11,9.8,22.8,18.8,35.1,26.9l1.4,1l-1.9,1.3c-14.4,9.4-28,20.1-40.5,31.9c-7.3,6.9-13.9,14.6-19.6,22.8
	c-4,5.5-7.1,11.6-9.3,18c-1.3,3.7-1.9,7.6-1.8,11.6c0.1,3.3,1.3,6.4,3.5,8.9c2.4,2.5,5.8,4,9.3,4.1c4.8,0.3,9.7-0.5,14.2-2.3
	c7.1-2.7,13.7-6.4,19.7-10.9c7.8-5.7,15.1-12,21.8-19c11-11.5,21-23.8,29.9-36.9l1.9-2.8l0.9,1.2c3.2,4.5,6.4,9.2,9.8,13.6
	c8.8,11.9,18.6,22.9,29.5,32.9c6.7,6.3,14.1,11.9,22.1,16.7c4.8,2.9,10,5.1,15.5,6.5c3.8,1.1,7.9,1.3,11.8,0.7
	c2.3-0.4,4.5-1.4,6.2-2.9c1.8-1.5,3-3.5,3.7-5.7c0.6-2,0.9-4.1,0.8-6.2c-0.2-3.9-1-7.8-2.5-11.4c-2.6-6.6-6.1-12.9-10.5-18.6
	c-7.2-9.6-15.4-18.4-24.4-26.2c-10.8-9.5-22.3-18.3-34.4-26.2L170.1,140.4z"/>
</svg>
